<?xml version="1.0" ?><svg data-name="Layer 1" id="Layer_1" viewBox="0 0 64 64" xmlns="http://www.w3.org/2000/svg"><defs><style>.cls-1{fill:#190933;}</style></defs><title/><path class="cls-1" d="M17.09,13.07l.33,0a1.51,1.51,0,0,0,.32-3,1.48,1.48,0,0,0-1.14.2,1.52,1.52,0,0,0,.49,2.76Zm.05-1.92a.56.56,0,0,1,.27-.08l.11,0a.5.5,0,0,1,.32.22.52.52,0,0,1-.15.71.49.49,0,0,1-.39.07.5.5,0,0,1-.31-.22A.52.52,0,0,1,17.14,11.15Z"/><path class="cls-1" d="M21.36,10.27a1,1,0,0,0,.31-1.4,1,1,0,1,0-.31,1.4Z"/><path class="cls-1" d="M14.55,14.62a1,1,0,0,0,.31-1.4,1,1,0,1,0-.31,1.4Z"/><path class="cls-1" d="M45.58,63.87a1,1,0,0,0,.5.13,1,1,0,0,0,.54-.16L59.5,55.61a5.09,5.09,0,0,0,1.55-7h0L31.88,2.35A5,5,0,0,0,24.93.79L4.5,13.85a5.08,5.08,0,0,0-1.55,7l2.17,3.44h0a1,1,0,0,0-.31,1.38L7,29.08a1,1,0,0,0,.85.47,1,1,0,0,0,.53-.15h0l1.09,1.74h0a1,1,0,0,0-.32,1.38l2.16,3.43a1,1,0,0,0,.85.47.94.94,0,0,0,.53-.16h0L29.48,62.91a.94.94,0,0,0,.87.46,1,1,0,0,0,.85-.52l4-7.34A2.11,2.11,0,0,0,34.85,53l-5.36-5.36a.11.11,0,0,1,0-.11l8-13.5L36,44.58a2.09,2.09,0,0,0,1.41,2.26l8.16,2.72a.08.08,0,0,1,.06.09L45.08,63A1,1,0,0,0,45.58,63.87ZM4.42,19.3a3.06,3.06,0,0,1,1.16-3.77L26,2.48a3,3,0,0,1,2.28-.41,3,3,0,0,1,1.6,1L27.36,4.64a4.45,4.45,0,0,0-2,3.23,3.49,3.49,0,0,1-1.53,2.6L13.66,17a3.41,3.41,0,0,1-3,.28,4.41,4.41,0,0,0-3.74.41ZM38.07,44.94a.08.08,0,0,1-.06-.09L39.85,31A1.32,1.32,0,0,0,39,29.59a1.39,1.39,0,0,0-.44-.07,1.31,1.31,0,0,0-1.14.65L27.76,46.55a2.09,2.09,0,0,0,.32,2.54l5.36,5.35a.09.09,0,0,1,0,.11L30.26,60.4,4.91,20.18l2.56-1.64a3.41,3.41,0,0,1,3-.28,4.39,4.39,0,0,0,3.74-.42l10.21-6.52a4.45,4.45,0,0,0,2-3.23A3.5,3.5,0,0,1,27.9,5.48l2.56-1.63L59.36,49.7h0a3.07,3.07,0,0,1-.94,4.22l-11.26,7.2.49-11.39a2.11,2.11,0,0,0-1.42-2.07Z"/><path class="cls-1" d="M20.5,61.5a.5.5,0,0,0,0,1h2a.5.5,0,0,0,0-1Z"/><path class="cls-1" d="M22.85,58.65l-1-1a.49.49,0,0,0-.7.7l1,1a.48.48,0,0,0,.7,0A.48.48,0,0,0,22.85,58.65Z"/><path class="cls-1" d="M37.28,60.55l-2,1a.5.5,0,0,0,.22,1,.54.54,0,0,0,.22,0l2-1a.5.5,0,1,0-.44-.9Z"/></svg>